<svg width="105" height="100" viewBox="0 0 105 100" fill="none" xmlns="http://www.w3.org/2000/svg">
<g clip-path="url(#clip0_1_6)">
<rect width="105" height="100" fill="white"/>
<mask id="mask0_1_6" style="mask-type:luminance" maskUnits="userSpaceOnUse" x="0" y="0" width="105" height="100">
<path d="M105 0H0V100H105V0Z" fill="white"/>
</mask>
<g mask="url(#mask0_1_6)">
<path d="M90.35 14.65C85.715 9.97305 80.202 6.25765 74.1275 3.71704C68.053 1.17644 61.5365 -0.139304 54.952 -0.154646C48.3673 -0.169988 41.8446 1.11537 35.7582 3.62763C29.6718 6.1399 24.1415 9.8296 19.4849 14.4849C14.8283 19.1402 11.137 24.6694 8.62305 30.7551C6.1091 36.8407 4.82188 43.3631 4.83536 49.9476C4.84884 56.532 6.16275 63.049 8.7016 69.1245C11.2405 75.2 14.9543 80.714 19.63 85.35C29.0195 94.6605 41.7147 99.872 54.9375 99.845C68.1605 99.818 80.8345 94.554 90.1855 85.2055C99.537 75.857 104.804 63.1845 104.835 49.9617C104.866 36.7388 99.6575 24.0422 90.35 14.65ZM26.7 78.3C22.9509 74.5915 19.9721 70.1785 17.9348 65.315C15.8976 60.451 14.8422 55.2325 14.8292 49.9593C14.8163 44.6861 15.8462 39.4624 17.8596 34.5887C19.873 29.715 22.8302 25.2875 26.5611 21.561C30.292 17.8344 34.7229 14.8822 39.5989 12.8744C44.4749 10.8666 49.6998 9.84275 54.973 9.8617C60.246 9.8807 65.4635 10.9421 70.325 12.985C75.1865 15.0278 79.596 18.0117 83.3 21.765C90.722 29.2862 94.867 39.4386 94.829 50.0055C94.791 60.572 90.5735 70.6945 83.097 78.162C75.621 85.6295 65.494 89.8355 54.927 89.8615C44.3603 89.887 34.2126 85.731 26.7 78.3ZM45 40L30 75C23.4359 68.436 19.7482 59.533 19.7482 50.25C19.7482 40.967 23.4359 32.0641 30 25.5C36.5641 18.9359 45.4669 15.2482 54.75 15.2482C64.033 15.2482 72.936 18.9359 79.5 25.5L45 40ZM50.6 54.4C50.0155 53.8245 49.5513 53.139 49.2338 52.3825C48.9164 51.6265 48.7521 50.815 48.7505 49.9948C48.7488 49.1747 48.91 48.3624 49.2245 47.605C49.539 46.8476 50.0005 46.16 50.5825 45.5823C51.1645 45.0045 51.8555 44.548 52.6155 44.2391C53.375 43.9302 54.1885 43.7752 55.0085 43.7828C55.8285 43.7905 56.639 43.9608 57.393 44.2839C58.1465 44.607 58.829 45.0765 59.4 45.665C60.5365 46.8364 61.1655 48.4086 61.15 50.0405C61.135 51.673 60.4765 53.233 59.318 54.383C58.16 55.5325 56.595 56.1795 54.9625 56.1825C53.3305 56.186 51.763 55.5455 50.6 54.4ZM79.75 75C76.4955 78.288 72.6215 80.898 68.3515 82.6795C64.082 84.461 59.5015 85.378 54.875 85.378C50.2485 85.378 45.6681 84.461 41.3984 82.6795C37.1287 80.898 33.2546 78.288 30 75L65 60L79.75 25.25C83.038 28.5046 85.648 32.3787 87.4295 36.6484C89.211 40.9181 90.128 45.4986 90.128 50.125C90.128 54.7515 89.211 59.332 87.4295 63.6015C85.648 67.8715 83.038 71.7455 79.75 75Z" fill="black"/>
</g>
</g>
<defs>
<clipPath id="clip0_1_6">
<rect width="105" height="100" fill="white"/>
</clipPath>
</defs>
</svg>
