<svg width="120" height="120" viewBox="0 0 120 120" fill="none" xmlns="http://www.w3.org/2000/svg">
<g clip-path="url(#clip0_2_2)">
<path fill-rule="evenodd" clip-rule="evenodd" d="M115 15H5C3.67392 15 2.40215 15.5268 1.46447 16.4645C0.526784 17.4021 0 18.6739 0 20L0 100C0 101.326 0.526784 102.598 1.46447 103.536C2.40215 104.473 3.67392 105 5 105H115C116.326 105 117.598 104.473 118.536 103.536C119.473 102.598 120 101.326 120 100V20C120 18.6739 119.473 17.4021 118.536 16.4645C117.598 15.5268 116.326 15 115 15ZM10 95H110V25H10V95Z" fill="black"/>
<path fill-rule="evenodd" clip-rule="evenodd" d="M20 45H50V35H20V45ZM20 65H50V55H20V65ZM20 85H50V75H20V85ZM10 95H60V25H10V95Z" fill="black" fill-opacity="0.25"/>
<path fill-rule="evenodd" clip-rule="evenodd" d="M70 45H100V35H70V45ZM70 65H100V55H70V65ZM100 85H70V75H100V85Z" fill="black" fill-opacity="0.6"/>
<path fill-rule="evenodd" clip-rule="evenodd" d="M50 37.67V82.335C50.0004 82.5901 50.0705 82.8402 50.2028 83.0583C50.335 83.2765 50.5243 83.4543 50.7503 83.5727C50.9762 83.6911 51.2302 83.7455 51.4849 83.73C51.7395 83.7146 51.985 83.6299 52.195 83.485L84.36 61.305C84.5662 61.1573 84.7326 60.9608 84.8442 60.7331C84.9559 60.5053 85.0094 60.2535 85 60C85.0095 59.7472 84.956 59.4961 84.8443 59.2691C84.7325 59.0422 84.5661 58.8466 84.36 58.7L52.195 36.515C51.985 36.3701 51.7395 36.2854 51.4849 36.27C51.2302 36.2545 50.9762 36.3089 50.7503 36.4273C50.5243 36.5456 50.335 36.7235 50.2028 36.9417C50.0705 37.1598 50.0004 37.4149 50 37.67Z" fill="black"/>
</g>
<defs>
<clipPath id="clip0_2_2">
<rect width="120" height="120" fill="white"/>
</clipPath>
</defs>
</svg>
