<svg width="90" height="100" viewBox="0 0 90 100" fill="none" xmlns="http://www.w3.org/2000/svg">
<g id="Frame" clip-path="url(#clip0_1_2)">
<path id="Vector" d="M45 70V100H0V70C0 61.5 6.5 55 15 55H30C38.5 55 45 61.5 45 70ZM72.5 55C82 55 90 47 90 37.5C90 28 82 20 72.5 20C63 20 55 28 55 37.5C55 47 63 55 72.5 55ZM77.5 65H67.5C60.5 65 55 70.5 55 77.5V100H90V77.5C90 70.5 84.5 65 77.5 65ZM22.5 0C10 0 0 10 0 22.5C0 35 10 45 22.5 45C35 45 45 35 45 22.5C45 10 35 0 22.5 0Z" fill="black"/>
</g>
<defs>
<clipPath id="clip0_1_2">
<rect width="90" height="100" fill="white"/>
</clipPath>
</defs>
</svg>
